<?xml version="1.0" encoding="utf-8"?>
<!-- Generator: Adobe Illustrator 16.0.0, SVG Export Plug-In . SVG Version: 6.00 Build 0)  -->
<!DOCTYPE svg PUBLIC "-//W3C//DTD SVG 1.1//EN" "http://www.w3.org/Graphics/SVG/1.1/DTD/svg11.dtd">
<svg version="1.1" id="Layer_1" xmlns="http://www.w3.org/2000/svg" xmlns:xlink="http://www.w3.org/1999/xlink" x="0px" y="0px"
	 width="60px" height="60px" viewBox="0 0 60 60" enable-background="new 0 0 60 60" xml:space="preserve">
<path fill="#FFFFFF" stroke="#000000" stroke-miterlimit="10" d="M30,6c2.031,1.73,4.665,2.775,7.543,2.775S43.055,7.73,45.086,6
	L55,15.914c-1.824,2.593-2.896,5.754-2.896,9.166c0,2.454,0.556,4.778,1.545,6.854C54.504,33.729,55,35.775,55,37.896
	c0,7.617-6.175,13.793-13.793,13.793h-2.165c-3.649,0-6.908,1.681-9.042,4.311c-2.134-2.63-5.392-4.311-9.042-4.311h-2.165
	C11.175,51.689,5,45.516,5,37.896c0-2.121,0.496-4.168,1.352-5.963c0.99-2.078,1.544-4.4,1.544-6.854
	c0-3.412-1.071-6.573-2.896-9.166L14.914,6c2.032,1.73,4.666,2.775,7.543,2.775S27.969,7.731,30,6z"/>
<text transform="matrix(1 0 0 1 11.1851 41.5)" font-family="'MyriadPro-Bold'" font-size="33">64</text>
</svg>
